<?xml version="1.0" encoding="UTF-8" standalone="no"?>
<!DOCTYPE svg PUBLIC "-//W3C//DTD SVG 1.1//EN" "http://www.w3.org/Graphics/SVG/1.1/DTD/svg11.dtd">
<svg width="100%" height="100%" viewBox="0 0 1024 256" version="1.1" xmlns="http://www.w3.org/2000/svg" xmlns:xlink="http://www.w3.org/1999/xlink" xml:space="preserve" xmlns:serif="http://www.serif.com/" style="fill-rule:evenodd;clip-rule:evenodd;stroke-linecap:round;stroke-linejoin:round;stroke-miterlimit:1.5;">
    <g>
        <g transform="matrix(1.02605,0,0,1.03932,-23.7991,-37.8242)">
            <ellipse cx="184.661" cy="179.2" rx="100.011" ry="96.939" style="fill:rgb(14,128,255);"/>
        </g>
        <g transform="matrix(1.30714,0,0,1.12579,-86.9376,-13.0093)">
            <ellipse cx="234.155" cy="103.424" rx="47.787" ry="54.272" style="fill:rgb(226,179,6);fill-opacity:0.9;"/>
        </g>
        <g transform="matrix(1.13235,0,0,1.23529,-33.1696,-48.3288)">
            <ellipse cx="147.456" cy="137.216" rx="69.632" ry="63.829" style="fill:rgb(75,45,214);fill-opacity:0.9;"/>
        </g>
        <g transform="matrix(0.107666,0,0,0.117631,20.2935,129.693)">
            <ellipse cx="147.456" cy="137.216" rx="69.632" ry="63.829" style="fill:rgb(75,45,214);fill-opacity:0.9;"/>
        </g>
        <g transform="matrix(0.138326,0,0,0.151365,44.1896,208.114)">
            <ellipse cx="147.456" cy="137.216" rx="69.632" ry="63.829" style="fill:rgb(205,174,30);fill-opacity:0.9;"/>
        </g>
        <g transform="matrix(1.10526,0,0,1.2029,-29.5164,-49.7907)">
            <ellipse cx="212.309" cy="194.219" rx="51.883" ry="47.104" style="fill:rgb(213,40,80);fill-opacity:0.9;"/>
        </g>
        <g transform="matrix(1,0,0,1.1159,0,-3.67898)">
            <ellipse cx="182.443" cy="18.773" rx="14.848" ry="12.971" style="fill:rgb(213,40,80);fill-opacity:0.9;"/>
        </g>
        <g transform="matrix(1.17726,0,0,1.32285,100.728,111.35)">
            <ellipse cx="182.443" cy="18.773" rx="14.848" ry="12.971" style="fill:rgb(14,128,255);fill-opacity:0.9;"/>
        </g>
        <g transform="matrix(0.57667,0,0,0.64872,179.138,153.01)">
            <ellipse cx="182.443" cy="18.773" rx="14.848" ry="12.971" style="fill:rgb(212,53,75);fill-opacity:0.9;"/>
        </g>
    </g>
    <g transform="matrix(1.87158,0,0,1.87158,-475.561,-202.555)">
        <g transform="matrix(104.536,0,0,104.536,792.4,213.206)">
        </g>
        <text x="434.155px" y="213.206px" style="font-family:'Baumans-Regular', 'Baumans';font-size:104.536px;fill:white;">SortBox</text>
    </g>
    <g id="box" transform="matrix(-0.0503569,0,0,0.0494146,165.672,148.423)">
        <g transform="matrix(1,0,0,1,-1666.67,-1666.67)">
            <g id="Capa1">
                <path d="M313.53,1106.16C342.411,1003.37 411.068,921.211 411.068,921.211L904.258,608.035L1125.08,492.566L1666.67,277.778C1666.67,277.778 2854.58,860.855 2922.26,923.334C2922.26,923.334 2922.26,923.334 2922.26,923.334C2989.94,985.813 3019.78,1106.16 3019.78,1106.16L2922.26,2410.03C2922.26,2410.03 1779.87,3040.05 1770.83,3042.22C1745.29,3048.38 1589.71,3048.57 1562.5,3042.22C1458.83,3018.05 411.068,2413.56 411.068,2413.56C411.068,2413.56 270.429,1259.55 313.53,1106.16Z" style="fill-opacity:0.57;stroke:white;stroke-opacity:0;stroke-width:1px;"/>
            </g>
            <g transform="matrix(138.889,0,0,138.889,0,0)">
                <path d="M17.578,4.432L15.578,3.382C13.822,2.461 12.944,2 12,2C11.056,2 10.178,2.461 8.422,3.382L8.101,3.551L17.024,8.65L21.04,6.641C20.394,5.909 19.352,5.362 17.578,4.432Z" style="fill:white;fill-rule:nonzero;"/>
            </g>
            <g transform="matrix(138.889,0,0,138.889,0,0)">
                <path d="M21.748,7.964L17.75,9.964L17.75,13C17.75,13.414 17.414,13.75 17,13.75C16.586,13.75 16.25,13.414 16.25,13L16.25,10.714L12.75,12.464L12.75,21.904C13.468,21.725 14.285,21.297 15.578,20.618L17.578,19.569C19.729,18.439 20.805,17.875 21.403,16.86C22,15.846 22,14.583 22,12.059L22,11.942C22,10.049 22,8.866 21.748,7.964Z" style="fill:white;fill-rule:nonzero;"/>
            </g>
            <g transform="matrix(138.889,0,0,138.889,0,0)">
                <path d="M11.25,21.904L11.25,12.464L2.252,7.964C2,8.866 2,10.049 2,11.942L2,12.059C2,14.583 2,15.846 2.597,16.86C3.195,17.875 4.271,18.439 6.422,19.569L8.422,20.618C9.715,21.297 10.532,21.725 11.25,21.904Z" style="fill:white;fill-rule:nonzero;"/>
            </g>
            <g transform="matrix(138.889,0,0,138.889,0,0)">
                <path d="M2.96,6.641L12,11.162L15.411,9.456L6.525,4.378L6.422,4.432C4.649,5.362 3.606,5.909 2.96,6.641Z" style="fill:white;fill-rule:nonzero;"/>
            </g>
        </g>
    </g>
</svg>
