<?xml version="1.0" encoding="UTF-8" standalone="no"?><!DOCTYPE svg PUBLIC "-//W3C//DTD SVG 1.1//EN" "http://www.w3.org/Graphics/SVG/1.1/DTD/svg11.dtd"><svg width="100%" height="100%" viewBox="0 0 1024 1024" version="1.1" xmlns="http://www.w3.org/2000/svg" xmlns:xlink="http://www.w3.org/1999/xlink" xml:space="preserve" xmlns:serif="http://www.serif.com/" style="fill-rule:evenodd;clip-rule:evenodd;stroke-linecap:round;stroke-linejoin:round;stroke-miterlimit:1.5;"><g><g><ellipse cx="462.032" cy="578.208" rx="332.683" ry="326.635" style="fill:#0e80ff;"/></g><g><ellipse cx="635.361" cy="432.326" rx="202.51" ry="198.083" style="fill:#e2b306;fill-opacity:0.9;"/></g><g><ellipse cx="358.708" cy="489.866" rx="255.626" ry="255.624" style="fill:#4b2dd6;fill-opacity:0.9;"/></g><g><ellipse cx="42.182" cy="569.818" rx="24.305" ry="24.342" style="fill:#4b2dd6;fill-opacity:0.9;"/></g><g><ellipse cx="134.311" cy="839.066" rx="31.227" ry="31.323" style="fill:#cdae1e;fill-opacity:0.9;"/></g><g><ellipse cx="589.987" cy="693.019" rx="185.911" ry="183.697" style="fill:#d52850;fill-opacity:0.9;"/></g><g><ellipse cx="516.402" cy="153.011" rx="48.137" ry="46.926" style="fill:#d52850;fill-opacity:0.9;"/></g><g><ellipse cx="947.81" cy="538.532" rx="56.67" ry="55.629" style="fill:#0e80ff;fill-opacity:0.9;"/></g><g><ellipse cx="846.778" cy="632.565" rx="27.759" ry="27.28" style="fill:#d4354b;fill-opacity:0.9;"/></g></g><g id="box"><g><g id="Capa1"><path d="M682.941,488.416c-4.715,-16.467 -15.924,-29.629 -15.924,-29.629l-80.517,-50.172l-36.051,-18.498l-88.418,-34.41c-0,0 -193.936,93.411 -204.985,103.42c-11.049,10.009 -15.921,29.289 -15.921,29.289l15.921,208.884c-0,-0 186.504,100.931 187.98,101.279c4.169,0.986 29.569,1.017 34.011,-0c16.925,-3.873 187.98,-100.714 187.98,-100.714c0,0 22.961,-184.875 15.924,-209.449Z" style="fill-opacity:0.57;stroke:#fff;stroke-opacity:0;stroke-width:0.16px;"/></g><g><path d="M335.552,409.82l45.349,-23.363c39.817,-20.492 59.725,-30.75 81.13,-30.75c21.405,0 41.313,10.258 81.13,30.75l7.279,3.761l-202.327,113.454l-91.061,-44.701c14.648,-16.287 38.275,-28.458 78.5,-49.151Z" style="fill:#fff;fill-rule:nonzero;"/></g><g><path d="M240.998,488.409l90.653,44.5l0,67.553c0,9.211 7.619,16.688 17.006,16.688c9.388,-0 17.007,-7.477 17.007,-16.688l-0,-50.865l79.361,38.938l-0,210.044c-16.28,-3.983 -34.806,-13.506 -64.124,-28.614l-45.349,-23.34c-48.774,-25.143 -73.172,-37.693 -86.731,-60.277c-13.537,-22.562 -13.537,-50.664 -13.537,-106.824l-0,-2.603c-0,-42.12 -0,-68.442 5.714,-88.512Z" style="fill:#fff;fill-rule:nonzero;"/></g><g><path d="M479.037,798.579l0,-210.044l204.027,-100.126c5.714,20.07 5.714,46.392 5.714,88.512l0,2.603c0,56.16 0,84.262 -13.537,106.824c-13.559,22.584 -37.957,35.134 -86.731,60.277l-45.349,23.34c-29.318,15.108 -47.844,24.631 -64.124,28.614Z" style="fill:#fff;fill-rule:nonzero;"/></g><g><path d="M667.01,458.971l-204.979,100.594l-77.343,-37.959l201.487,-112.987l2.335,1.201c40.203,20.693 63.852,32.864 78.5,49.151Z" style="fill:#fff;fill-rule:nonzero;"/></g></g></g></svg>